<?xml version="1.0" encoding="UTF-8" standalone="no"?> <svg xmlns="http://www.w3.org/2000/svg" viewBox="0 0 32 32"><title>Headset</title><g id="Headset"><path d="M28,14.556V14A12,12,0,0,0,4,14v.556A3.987,3.987,0,0,0,2,18v3a4,4,0,0,0,4,4H7a2,2,0,0,0,2-2V16a2,2,0,0,0-2-2H6a10,10,0,0,1,20,0H25a2,2,0,0,0-2,2v7a2,2,0,0,0,2,2h.722A1.993,1.993,0,0,1,24,26H21.816A3,3,0,0,0,19,24H17a3,3,0,0,0,0,6h2a3,3,0,0,0,2.816-2H24a3.992,3.992,0,0,0,3.953-3.531A3.987,3.987,0,0,0,30,21V18A3.987,3.987,0,0,0,28,14.556ZM7,16v7H6a2,2,0,0,1-2-2V18a2,2,0,0,1,2-2ZM19,28H17a1,1,0,0,1,0-2h2a1,1,0,0,1,0,2Zm9-7a2,2,0,0,1-2,2H25V16h1a2,2,0,0,1,2,2Z"/></g></svg>