<?xml version="1.0" encoding="UTF-8" standalone="no"?> <svg id="Line" xmlns="http://www.w3.org/2000/svg" viewBox="0 0 64 64"><defs><style>.cls-1{fill:#231f20;}</style></defs><title>1</title><path class="cls-1" d="M41.2832,36.62305h-.50879c-.71866.05541-1.22422.778-1.82426,1.07462l.00005-1.35557a10.5592,10.5592,0,0,0,5.38964-9.23175V24.46783a3.494,3.494,0,0,0,2.37685-3.89364A3.3065,3.3065,0,0,0,44.33984,17.413V15.21973A10.664,10.664,0,0,0,37.04865,5.11755,1.74571,1.74571,0,0,0,35.417,4H28.834a1.75614,1.75614,0,0,0-1.64623,1.14771,10.69024,10.69024,0,0,0-7.20728,10.072v2.073a3.44352,3.44352,0,0,0-3.00674,4.013,3.30616,3.30616,0,0,0,3.00674,3.28244v2.52222a10.64529,10.64529,0,0,0,4.94922,8.95947v1.55384c-.828-.47588-.89116-.80622-1.53182-.96986a7.93941,7.93941,0,0,0-1.04732-.03074A10.63982,10.63982,0,0,0,11.72266,47.251V59a.99942.99942,0,0,0,1,1s33.82031-.001,38.55468,0a.99942.99942,0,0,0,1-1V47.61719A11.00619,11.00619,0,0,0,41.2832,36.62305ZM24.23047,47.81543V39.51306c3.74664,2.0514,8.13706,3.56854,14.09852.84038.41328-.20344.82448-.42362,1.24132-.6765v8.13849Zm18.10937-32.5957v2.042H35.908l1.11841-10.019A8.66383,8.66383,0,0,1,42.33984,15.21973ZM35.15234,6,33.8949,17.26172h-3.8L29.09277,6ZM27.19965,7.28638l.88726,9.97534H21.98047v-2.042A8.68545,8.68545,0,0,1,27.19965,7.28638Zm-8.226,14.01928v-.73144a1.3143,1.3143,0,0,1,1.31348-1.3125H43.40332a1.3143,1.3143,0,0,1,1.31348,1.3125v.73144a1.31451,1.31451,0,0,1-1.31348,1.31348H20.28711A1.31451,1.31451,0,0,1,18.97363,21.30566Zm3.00684,5.80469V24.61914H42.33984v2.49121A8.59835,8.59835,0,0,1,37.50293,34.875c-1.889,1.09558-4.73527.87744-6.86332.8847A8.70824,8.70824,0,0,1,21.98047,27.11035Zm4.94922,9.9693c1.92856.83628,4.68354.67982,6.76076.68005a10.68954,10.68954,0,0,0,3.25975-.52178v1.55743a12.11841,12.11841,0,0,1-10.02051-.0957ZM13.72266,47.251a8.634,8.634,0,0,1,8.50781-8.62183v9.18628H20.88379a2.0026,2.0026,0,0,0-2,2V58H13.72266ZM20.88379,58V49.81543h2.32245a.07858.07858,0,0,0,.04846,0c1.75071-.00023,18.78482.00021,19.97674,0V58Zm29.39355,0H45.23145V49.81543a2.00261,2.00261,0,0,0-2-2H41.57031V38.63757a8.999,8.999,0,0,1,8.707,8.97962Z"/></svg>